<?xml version="1.0" encoding="UTF-8"?>
<svg width="373px" height="116px" viewBox="0 0 373 116" version="1.1" xmlns="http://www.w3.org/2000/svg" xmlns:xlink="http://www.w3.org/1999/xlink">
    <title>Group 3</title>
    <defs>
        <polygon id="path-1" points="0 0 372.573 0 372.573 115.7935 0 115.7935"></polygon>
    </defs>
    <g id="Page-1" stroke="none" stroke-width="1" fill="none" fill-rule="evenodd">
        <g id="Desktop-HD" transform="translate(-534.000000, -454.000000)">
            <g id="Group-3" transform="translate(534.000000, 454.000000)">
                <mask id="mask-2" fill="white">
                    <use xlink:href="#path-1"></use>
                </mask>
                <g id="Clip-2"></g>
                <path d="M36.2409,34.9 C31.8169,34.9 28.2189,38.499 28.2189,42.922 C28.2189,47.347 31.8169,50.947 36.2409,50.947 C40.6649,50.947 44.2629,47.347 44.2629,42.922 C44.2629,38.499 40.6649,34.9 36.2409,34.9 L36.2409,34.9 Z M94.4759,50.737 C96.0539,52.316 96.0539,54.875 94.4759,56.453 C93.6869,57.242 92.6519,57.637 91.6179,57.637 C90.5839,57.637 89.5489,57.242 88.7599,56.453 L80.9459,48.639 L73.1299,56.455 C72.3409,57.244 71.3059,57.639 70.2719,57.639 C69.2379,57.639 68.2029,57.245 67.4139,56.455 C65.8349,54.877 65.8349,52.318 67.4139,50.739 L75.2299,42.923 L67.4139,35.107 C65.8349,33.529 65.8349,30.969 67.4139,29.391 C68.9919,27.813 71.5519,27.813 73.1299,29.391 L80.9449,37.207 L88.7599,29.391 C90.3379,27.813 92.8979,27.812 94.4759,29.391 C96.0539,30.969 96.0539,33.528 94.4759,35.107 L86.6609,42.922 L94.4759,50.737 Z M89.7949,71.244 C89.0859,73.873 88.0469,76.413 86.7069,78.793 C86.0999,79.871 84.9779,80.478 83.8229,80.478 C83.2729,80.478 82.7159,80.341 82.2029,80.052 C80.6119,79.156 80.0479,77.14 80.9439,75.548 C82.0139,73.648 82.8429,71.62 83.4089,69.522 C83.8839,67.758 85.6989,66.715 87.4629,67.19 C89.2259,67.666 90.2699,69.481 89.7949,71.244 L89.7949,71.244 Z M77.5769,89.141 C73.8099,91.932 69.5799,93.849 65.0039,94.84 C64.7679,94.892 64.5329,94.916 64.3009,94.916 C62.7779,94.916 61.4079,93.858 61.0719,92.309 C60.6849,90.524 61.8189,88.763 63.6039,88.377 C67.2559,87.585 70.6329,86.054 73.6399,83.827 C75.1079,82.739 77.1789,83.048 78.2659,84.516 C79.3529,85.983 79.0449,88.054 77.5769,89.141 L77.5769,89.141 Z M55.1259,92.335 C54.7989,93.893 53.4239,94.962 51.8929,94.962 C51.6679,94.962 51.4389,94.939 51.2099,94.891 C46.6369,93.929 42.3949,92.039 38.6039,89.272 C37.1279,88.195 36.8049,86.127 37.8819,84.651 C38.9579,83.176 41.0269,82.852 42.5019,83.929 C45.5329,86.141 48.9199,87.651 52.5699,88.418 C54.3579,88.794 55.5019,90.547 55.1259,92.335 L55.1259,92.335 Z M20.1349,42.922 C20.1349,34.042 27.3599,26.816 36.2409,26.816 C45.1219,26.816 52.3469,34.042 52.3469,42.922 C52.3469,51.805 45.1219,59.031 36.2409,59.031 C27.3599,59.031 20.1349,51.805 20.1349,42.922 L20.1349,42.922 Z M33.9079,80.216 C33.3909,80.512 32.8269,80.653 32.2709,80.653 C31.1229,80.653 30.0069,80.054 29.3969,78.986 C28.0419,76.615 26.9879,74.081 26.2619,71.453 C25.7769,69.692 26.8109,67.871 28.5709,67.385 C30.3349,66.901 32.1529,67.934 32.6379,69.694 C33.2169,71.791 34.0579,73.813 35.1389,75.705 C36.0449,77.29 35.4939,79.31 33.9079,80.216 L33.9079,80.216 Z M78.1579,0 L37.6359,0 C16.9359,0 -0.0001,16.936 -0.0001,37.635 L-0.0001,78.158 C-0.0001,98.858 16.9359,115.794 37.6359,115.794 L78.1579,115.794 C98.8579,115.794 115.7939,98.858 115.7939,78.158 L115.7939,37.635 C115.7939,16.936 98.8579,0 78.1579,0 L78.1579,0 Z M177.0249,33.471 L141.0909,33.471 C140.1999,33.471 139.5529,34.199 139.5529,35.008 L139.5529,43.83 C139.5529,44.639 140.1999,45.368 141.0909,45.368 L152.6639,45.368 L152.6639,88.586 C152.6639,89.395 153.3929,90.124 154.2019,90.124 L163.9139,90.124 C164.7229,90.124 165.4509,89.395 165.4509,88.586 L165.4509,45.368 L177.0249,45.368 C177.9149,45.368 178.5629,44.639 178.5629,43.83 L178.5629,35.008 C178.5629,34.199 177.9149,33.471 177.0249,33.471 L177.0249,33.471 Z M208.5899,57.67 L196.6129,57.67 L196.6129,45.044 L208.5899,45.044 C211.9079,45.044 214.7409,47.796 214.7409,51.195 C214.7409,54.594 211.9079,57.67 208.5899,57.67 L208.5899,57.67 Z M227.2849,50.952 C227.2849,41.321 219.3539,33.471 209.6429,33.471 L185.4439,33.471 C184.5529,33.471 183.9059,34.199 183.9059,35.008 L183.9059,88.586 C183.9059,89.395 184.5529,90.124 185.4439,90.124 L195.0739,90.124 C195.8839,90.124 196.6129,89.395 196.6129,88.586 L196.6129,67.948 L202.1969,67.948 L212.9599,89.395 C213.1219,89.719 213.6079,90.124 214.2549,90.124 L225.0199,90.124 C226.3959,90.124 226.9619,88.829 226.3959,87.776 L215.3079,67.22 C222.3489,64.387 227.2849,58.398 227.2849,50.952 L227.2849,50.952 Z M251.3739,70.7 L257.4449,57.346 L257.5259,57.346 L263.6759,70.7 L251.3739,70.7 Z M259.3059,33.552 C259.0629,33.066 258.4959,32.662 257.9299,32.662 L257.1199,32.662 C256.5539,32.662 255.9879,33.066 255.7439,33.552 L230.4119,88.019 C229.9269,89.071 230.5739,90.124 231.7879,90.124 L240.6919,90.124 C242.3099,90.124 243.1999,89.152 243.6049,88.181 L246.5189,81.707 L268.5319,81.707 L271.4459,88.1 C272.1739,89.638 272.8219,90.124 274.2789,90.124 L283.2619,90.124 C284.4759,90.124 285.1229,89.071 284.6379,88.019 L259.3059,33.552 Z M371.0349,45.368 C371.9259,45.368 372.5739,44.639 372.5739,43.83 L372.5739,35.008 C372.5739,34.199 371.9259,33.471 371.0349,33.471 L337.5299,33.471 C336.6389,33.471 335.9909,34.199 335.9909,35.008 L335.9909,88.586 C335.9909,89.395 336.6389,90.124 337.5299,90.124 L371.0349,90.124 C371.9259,90.124 372.5739,89.395 372.5739,88.586 L372.5739,79.764 C372.5739,78.955 371.9259,78.227 371.0349,78.227 L348.6169,78.227 L348.6169,67.3 L367.0699,67.3 C367.8789,67.3 368.6079,66.653 368.6079,65.763 L368.6079,56.941 C368.6079,56.132 367.8789,55.403 367.0699,55.403 L348.6169,55.403 L348.6169,45.368 L371.0349,45.368 Z M329.7909,33.471 L319.0279,33.471 C318.3789,33.471 317.8129,33.957 317.6519,34.361 L304.2969,63.901 L303.8119,63.901 L290.4579,34.361 C290.2959,33.957 289.7299,33.471 289.0819,33.471 L278.3179,33.471 C277.1039,33.471 276.4559,34.523 276.9419,35.575 L302.1939,90.043 C302.4359,90.528 302.9209,90.933 303.5689,90.933 L304.3779,90.933 C305.0259,90.933 305.5109,90.528 305.7539,90.043 L331.1669,35.575 C331.6529,34.523 331.0049,33.471 329.7909,33.471 L329.7909,33.471 Z" id="Fill-1" fill="#FFFFFF" mask="url(#mask-2)"></path>
            </g>
        </g>
    </g>
</svg>